<svg xmlns="http://www.w3.org/2000/svg" viewBox="0 0 15.96 28"><defs><style>.cls-1{fill:#221f20}</style></defs><title>Asset 1</title><g id="Layer_2" data-name="Layer 2"><g id="Layer_1-2" data-name="Layer 1"><path class="cls-1" d="M12.59 28H3.37a.85.85 0 1 1 0-1.69h9.22a.85.85 0 0 1 0 1.69z"/><path class="cls-1" d="M8 28a.85.85 0 0 1-.85-.85v-6.93a.85.85 0 0 1 1.69 0v6.94A.85.85 0 0 1 8 28z"/><path class="cls-1" d="M8 20.56h-.07A7.93 7.93 0 0 1 0 12.63a.85.85 0 0 1 1.69 0 6.24 6.24 0 0 0 6.24 6.24H8a6.24 6.24 0 0 0 6.24-6.24.85.85 0 1 1 1.69 0A7.93 7.93 0 0 1 8 20.56z"/><path class="cls-1" d="M8 0h-.07a4.56 4.56 0 0 0-4.56 4.56v8.06a4.56 4.56 0 0 0 4.56 4.56H8a4.56 4.56 0 0 0 4.56-4.56V4.56A4.56 4.56 0 0 0 8 0zM4.46 9.29a.41.41 0 1 1 .41-.41.41.41 0 0 1-.41.41zm0-1.67a.41.41 0 1 1 .41-.41.41.41 0 0 1-.41.41zm0-1.67a.41.41 0 1 1 .41-.41.41.41 0 0 1-.41.41zm0-1.67a.41.41 0 1 1 .41-.41.41.41 0 0 1-.41.4zm.9 4.21a.41.41 0 1 1 .41-.41.41.41 0 0 1-.41.4zm0-1.67a.41.41 0 1 1 .41-.41.41.41 0 0 1-.41.4zm0-1.67a.41.41 0 1 1 .41-.41.41.41 0 0 1-.41.39zm0-1.67a.41.41 0 1 1 .41-.41.41.41 0 0 1-.41.39zm.86 5.83a.41.41 0 1 1 .41-.41.41.41 0 0 1-.41.39zm0-1.67a.41.41 0 1 1 .41-.41.41.41 0 0 1-.41.39zm0-1.67a.41.41 0 1 1 .41-.41.41.41 0 0 1-.41.39zm0-1.67a.41.41 0 1 1 .41-.41.41.41 0 0 1-.41.38zm0-1.67a.41.41 0 1 1 .41-.41.41.41 0 0 1-.41.38zm.9 5.88a.41.41 0 1 1 .41-.41.41.41 0 0 1-.41.38zm0-1.67a.41.41 0 1 1 .41-.41.41.41 0 0 1-.41.38zm0-1.67a.41.41 0 1 1 .41-.41.41.41 0 0 1-.41.37zm0-1.67a.41.41 0 1 1 .41-.41.41.41 0 0 1-.41.37zm0-1.67a.41.41 0 1 1 .41-.41.41.41 0 0 1-.41.37zM8 9.29a.41.41 0 1 1 .41-.41.41.41 0 0 1-.41.41zm0-1.67a.41.41 0 1 1 .41-.41.41.41 0 0 1-.41.41zm0-1.67a.41.41 0 1 1 .41-.41.41.41 0 0 1-.41.41zm0-1.68a.41.41 0 1 1 .41-.41.41.41 0 0 1-.41.41zM8 2.6a.41.41 0 1 1 .41-.41.41.41 0 0 1-.41.41zm.9 5.88a.41.41 0 1 1 .41-.41.41.41 0 0 1-.44.41zm0-1.67a.41.41 0 1 1 .41-.41.41.41 0 0 1-.44.41zm0-1.67a.41.41 0 1 1 .41-.41.41.41 0 0 1-.44.4zm0-1.67a.41.41 0 1 1 .41-.41.41.41 0 0 1-.44.4zm0-1.67a.41.41 0 1 1 .41-.41.41.41 0 0 1-.44.4zm.86 7.51a.41.41 0 1 1 .41-.41.41.41 0 0 1-.43.39zm0-1.67a.41.41 0 1 1 .41-.41.41.41 0 0 1-.43.39zm0-1.67a.41.41 0 1 1 .41-.41.41.41 0 0 1-.43.39zm0-1.67a.41.41 0 1 1 .41-.41.41.41 0 0 1-.43.38zm0-1.67a.41.41 0 1 1 .41-.41.41.41 0 0 1-.43.38zm.9 5.88a.41.41 0 1 1 .34-.43.41.41 0 0 1-.37.4zm0-1.67A.41.41 0 1 1 11 6.4a.41.41 0 0 1-.37.41zm0-1.67a.41.41 0 1 1 .34-.44.41.41 0 0 1-.37.4zm0-1.67a.41.41 0 1 1 .34-.45.41.41 0 0 1-.37.41zm.86 5.83a.41.41 0 1 1 .41-.41.41.41 0 0 1-.43.37zm0-1.67a.41.41 0 1 1 .41-.41.41.41 0 0 1-.43.37zm0-1.67a.41.41 0 1 1 .41-.41.41.41 0 0 1-.43.37zm0-1.67a.41.41 0 1 1 .41-.41.41.41 0 0 1-.43.36z"/></g></g></svg>