<svg xmlns="http://www.w3.org/2000/svg" viewBox="0 0 23.16 23.17"><defs><style>.cls-1{fill:#221f20;fill-rule:evenodd}</style></defs><title>event-film</title><g id="Layer_2" data-name="Layer 2"><path class="cls-1" d="M.79 0h.55v2h3.61V0h13.23v2h3.61V0h.59a.79.79 0 0 1 .56.23.78.78 0 0 1 .23.56v21.59a.78.78 0 0 1-.23.56.78.78 0 0 1-.56.23h-.59v-1.6h-3.61v1.6H4.95v-1.6H1.34v1.6H.79a.78.78 0 0 1-.55-.23.78.78 0 0 1-.24-.56V.79A.78.78 0 0 1 .23.23.79.79 0 0 1 .79 0zM14.7 11.7L8.14 8.31v6.57zm7.08 5.57h-3.6v1.89h3.61zm0-4.29h-3.6v1.88h3.61zm0-4.29h-3.6v1.88h3.61zm0-4.3h-3.6v1.88h3.61zM4.95 17.27H1.34v1.89h3.61zm0-4.29H1.34v1.88h3.61zm0-4.29H1.34v1.88h3.61zm0-4.3H1.34v1.88h3.61z" id="Layer_1-2" data-name="Layer 1"/></g></svg>