<svg xmlns="http://www.w3.org/2000/svg" viewBox="0 0 22.82 25.77"><defs><style>.cls-1{fill:#221f20;fill-rule:evenodd}</style></defs><title>event-music</title><g id="Layer_2" data-name="Layer 2"><path class="cls-1" d="M10.36 0a10.37 10.37 0 0 1 10.37 10.37c0 .34 0 .69-.05 1a10 10 0 0 1-.15 1v.14h-.14l-6.3 1a.71.71 0 0 0-.43.24.72.72 0 0 0-.17.46v5.94h-.15a10.24 10.24 0 0 1-1.46.32A10.37 10.37 0 1 1 10.36 0zm3.89 14.31l8.46-1.39h.11v10.43a1.1 1.1 0 0 1-.48.76 2 2 0 0 1-2.26 0 1 1 0 0 1 0-1.71 2 2 0 0 1 1.13-.34 2.09 2.09 0 0 1 .45 0l.28.08v-7l-6.85 1.13v8.39a1.09 1.09 0 0 1-.48.76 2.05 2.05 0 0 1-2.26 0 1 1 0 0 1 0-1.71 1.93 1.93 0 0 1 1.13-.34 2.08 2.08 0 0 1 .45 0l.28.08v-9.13zm-1.67-6.16a3.13 3.13 0 1 0 .92 2.22 3.12 3.12 0 0 0-.92-2.22zm5.91 8.65A10.41 10.41 0 0 1 16.1 19l-.32.21v-2.32h.17l2.34-.39z" id="Layer_1-2" data-name="Layer 1"/></g></svg>