<svg xmlns="http://www.w3.org/2000/svg" viewBox="0 0 314 14.48"><defs><style>.cls-1{fill:#444545}</style></defs><title>title</title><g id="Layer_2" data-name="Layer 2"><path class="cls-1" d="M5.78 1.07a1.65 1.65 0 0 1 1 .35L7 3.12A6.09 6.09 0 0 0 5.6 3h-.2q-.8 0-.8.21a2.4 2.4 0 0 0-.13.75q.1 1.65.1 2.72V7q0 1.74-.12 3.33l.08 1 2.34-.11q.05.24.2 1.72L7 13H2.21a17.21 17.21 0 0 0-1.8.13l-.07-1 .31-.69h.07l2.39.05q.24 0 .41-.61-.22-2.7-.22-4.75 0-1.33.1-2.69a3.22 3.22 0 0 0-1-.46 16 16 0 0 0-2.3-.34L0 1.86s2-.29 5.78-.79m4.55-.26q1.89 3.9 4 8.88a1.19 1.19 0 0 0 .46.14h.3q.18 0 .18-.19.08-1 .08-1.91l-.15-2.88v-.16q.07-3 .29-3l1.24-.05q-.18 2.36-.18 4.15v.27a55.29 55.29 0 0 0 .45 6.62q-1.85.32-2.13.32a37.75 37.75 0 0 0-2.54-5.84Q11.72 6 11.29 6H11l-.48 1.11v5.73a13.71 13.71 0 0 1-1.92.24 100.32 100.32 0 0 0 .61-11.9zm8.89-.13v.17a5 5 0 0 0 .44 1.27q1.45 5 1.72 6.05a1.37 1.37 0 0 0 .71.31h.12q.22 0 .22-.24l.46-2.37 1-3.66A10.57 10.57 0 0 1 24.35 1a9.53 9.53 0 0 1 1.45.43Q22.59 12.13 22.29 13l-.34.06h-.38a1.41 1.41 0 0 1-.85-.46v-.06a32.65 32.65 0 0 0-1.15-7.41q-1.25-3.62-1.25-3.87V.95a6.11 6.11 0 0 1 .95-.31m12.05.49h3.14a10.39 10.39 0 0 1-.19 1.45q-3.59 0-3.59.24A3.11 3.11 0 0 0 30.14 5a2.36 2.36 0 0 0 .52 1.83 5 5 0 0 0 1.25.17h.31a13.89 13.89 0 0 0 2.1-.22l.14 1a21 21 0 0 1-3.76.54 1.49 1.49 0 0 0-.44 1.11 1.32 1.32 0 0 0 .88 1.36h2.69q.42 0 .42.07a7 7 0 0 1 0 .84q0 .95-.22.95a21.59 21.59 0 0 1-2.54.41H29q-.77 0-.77-.18-.18 0-.18-2V8.17q0-6.28.52-7zm9.39-.55q2 0 2.9 2.43v.34a1.05 1.05 0 0 1-.46.75 1.38 1.38 0 0 0-.72-.4 1.31 1.31 0 0 0-.52-.75 1.45 1.45 0 0 0-.74-.27h-.25q-.85 0-1.15 1.21v.34a1.39 1.39 0 0 0 .72 1.35q.72.33 1.92.79A3 3 0 0 1 43.53 9a6.28 6.28 0 0 1-.82 2.69q-.89 1.35-1.87 1.35h-.44a3.2 3.2 0 0 1-1.77-.84 4.6 4.6 0 0 1-1.19-2.6q0-.41.56-.67a2.18 2.18 0 0 0 .47 1.07 3 3 0 0 0 1.21.77 1.88 1.88 0 0 0 .74.19 1.58 1.58 0 0 0 1.64-1v-.43q0-1.37-2.2-3a3.79 3.79 0 0 1-1-.75 3.66 3.66 0 0 1-.84-2.36A3 3 0 0 1 39.37.94a2.17 2.17 0 0 1 1.34-.36m4.93.42a42.45 42.45 0 0 0 8 .69 6.15 6.15 0 0 1 .33.82V3a2.12 2.12 0 0 1-.07.82 35.61 35.61 0 0 1-3.57-.39 5.34 5.34 0 0 0-.09 1.27V5q0 .77.33 7 0 .72-.38.93a2.74 2.74 0 0 1-.87.13h-.17v-2.48q0-3.67-.24-7.45a1.45 1.45 0 0 0-.42 0h-.09a8.77 8.77 0 0 0-2.58.34v-.76a11 11 0 0 0-.2-1.71zm15.64.07a1.65 1.65 0 0 1 1 .35l.25 1.7A6.09 6.09 0 0 0 61.1 3h-.2q-.8 0-.8.21a2.4 2.4 0 0 0-.13.75q.1 1.65.1 2.72V7q0 1.74-.12 3.33l.08 1 2.34-.11q.05.24.2 1.72h-.08l-1.88.06h-2.9a17.21 17.21 0 0 0-1.8.13l-.07-1 .31-.69h.07l2.39.05q.24 0 .41-.61-.22-2.7-.22-4.75 0-1.33.1-2.69a3.22 3.22 0 0 0-1-.46 16 16 0 0 0-2.3-.37l-.1-.79s2-.29 5.78-.79m7.82-.3A3.89 3.89 0 0 1 71.91 2a2.56 2.56 0 0 1 .68 1.68v.15q0 .43-.8.56h-.15a1.44 1.44 0 0 1-1.12-.69 2.29 2.29 0 0 0-1.6-.7 2.92 2.92 0 0 0-2.38 1.59 8.93 8.93 0 0 0-.7 1.9 5.49 5.49 0 0 0-.13 1.11 4 4 0 0 0 1.68 2.88 1.59 1.59 0 0 0 .83.31h.36a2.17 2.17 0 0 0 1.87-1.08 1.21 1.21 0 0 0 .17-.6V9q0-.54-.66-.7l-1 .2q-.1 0-.17-.14v-.91h-.06a6.1 6.1 0 0 1 1.59-.31h.4a1.49 1.49 0 0 1 1.55 1.06 10.62 10.62 0 0 1 .32 3v3.29h-1.4v-1.96q0-.56-.36-.56t-.59.62a1 1 0 0 1-.82.38h-.24a4.85 4.85 0 0 1-4.36-2.3 6 6 0 0 1-.74-3A8.12 8.12 0 0 1 65.54 3l2.21-1.88A2.59 2.59 0 0 1 69.1.73m8.61.1q.89 0 1.82 1.61a6.42 6.42 0 0 1 .54 1.43 49.66 49.66 0 0 1 .72 5.54l.38 2.44q0 .41-1.38.83h-.29q-.29 0-.37-.58-.22-.9-.63-3.44-.2-.93-.35-.93h-.3q-.95 0-.95.21-.29 1-.83 3.85a11.25 11.25 0 0 1-.23 1.11l-.16.06h-.22a5.07 5.07 0 0 1-1.46-.55l-.16-.07a64.37 64.37 0 0 1 1-6.39 26.46 26.46 0 0 1 1-3.17 4.09 4.09 0 0 1 .7-1.34 1.62 1.62 0 0 1 1.17-.61m4.93.17a42.45 42.45 0 0 0 8 .69 6.14 6.14 0 0 1 .33.82V3a2.12 2.12 0 0 1-.07.82 35.61 35.61 0 0 1-3.57-.39 5.34 5.34 0 0 0-.09 1.27V5q0 .77.33 7 0 .72-.38.93a2.74 2.74 0 0 1-.87.13h-.17v-2.48q0-3.67-.24-7.45a1.45 1.45 0 0 0-.42 0h-.09a8.77 8.77 0 0 0-2.58.34v-.76a11 11 0 0 0-.2-1.71zm15.64.07a1.65 1.65 0 0 1 1 .35l.25 1.7A6.09 6.09 0 0 0 98.1 3h-.2q-.8 0-.8.21a2.4 2.4 0 0 0-.13.75q.1 1.65.1 2.72V7q0 1.74-.12 3.33l.08 1 2.34-.11q.05.24.2 1.72h-.08l-1.88.06h-2.9a17.21 17.21 0 0 0-1.8.13l-.07-1 .31-.69h.07l2.39.05q.24 0 .41-.61-.22-2.7-.22-4.75 0-1.33.1-2.69a3.22 3.22 0 0 0-1-.46 16 16 0 0 0-2.3-.37l-.1-.79s2-.29 5.78-.79m4.19-.35v.17a5 5 0 0 0 .44 1.27q1.45 5 1.72 6.05a1.37 1.37 0 0 0 .71.31h.12q.22 0 .22-.24l.46-2.37 1-3.66a10.57 10.57 0 0 1 .4-1.15 9.52 9.52 0 0 1 1.45.43q-3.2 10.65-3.51 11.54l-.34.06h-.38a1.41 1.41 0 0 1-.85-.46v-.06a32.65 32.65 0 0 0-1.15-7.41q-1.25-3.62-1.25-3.87V.98a6.11 6.11 0 0 1 .95-.31m12.1.46h3.14a10.41 10.41 0 0 1-.19 1.45q-3.59 0-3.59.24a3.11 3.11 0 0 0-.53 2.18 2.36 2.36 0 0 0 .52 1.83 5 5 0 0 0 1.25.15h.31a13.89 13.89 0 0 0 2.1-.22l.14 1a21 21 0 0 1-3.76.54 1.49 1.49 0 0 0-.44 1.11 1.32 1.32 0 0 0 .88 1.36h2.69q.42 0 .42.07a7 7 0 0 1 0 .84q0 .95-.22.95a21.59 21.59 0 0 1-2.54.41h-2.5q-.77 0-.77-.18-.18 0-.18-2V8.15q0-6.28.52-7zm20.15-.44q1.12 0 1.12.12v1.86q0 .27-.05.27h-.31l-2.71-.2q-1.47.08-1.63.3a.69.69 0 0 0-.13.48v.22a2.59 2.59 0 0 0 .31 1.33h.92a8.51 8.51 0 0 1 2.47.22v1.13a26.31 26.31 0 0 0-2.66-.3q-.76 0-.76.15v1.3a34.08 34.08 0 0 0 .48 5.51 8.74 8.74 0 0 1-1.75-.27q-.29-4.37-.29-11.61a29.33 29.33 0 0 1 5-.55m8.64.46a1.65 1.65 0 0 1 1 .35l.25 1.7a6.09 6.09 0 0 0-1.4-.19H143q-.8 0-.8.21a2.4 2.4 0 0 0-.13.75q.1 1.65.1 2.72v.38q0 1.74-.12 3.33l.08 1 2.34-.11q.05.24.2 1.72h-.08l-1.88.05-2.9-.09a17.22 17.22 0 0 0-1.8.13l-.07-1 .31-.69h.07l2.39.05q.24 0 .41-.61-.22-2.7-.22-4.75 0-1.33.1-2.69a3.22 3.22 0 0 0-1-.37 16 16 0 0 0-2.3-.37l-.1-.79s2-.29 5.78-.79m4.82-.62v.15q.07 1.27.11 9.69l.19.5a9.68 9.68 0 0 1 1.6-.15 6.43 6.43 0 0 1 1.84.27l.33 1.93q0 .19-.25.27h-4.65a32.59 32.59 0 0 1-.31-3.64l-.44-7.51A7 7 0 0 1 147 .6zm5.68.16h.31l1.08 2.31a21.71 21.71 0 0 0 2 3.3l.51.56a21 21 0 0 0 2.06-3.68q.36-.88.61-1.65a1.77 1.77 0 0 1 .82-.29.52.52 0 0 1 .33.12v6.65l.61 4.64q-.1 0-1.95.25a4.32 4.32 0 0 1-.2-1.37l.05-.91L160 6.8l-2.2 2.14-2.4-2.52q-.09 2.87-.09 5v1.59a11.93 11.93 0 0 1-1.83.16 9.32 9.32 0 0 0 .25-2.14l.2-5.74zm25.04.1q1.12 0 1.12.12v1.86q0 .27-.05.27h-.31L177 2.77q-1.47.08-1.63.3a.69.69 0 0 0-.13.48v.22a2.59 2.59 0 0 0 .31 1.33h.92a8.51 8.51 0 0 1 2.47.22v1.1a26.31 26.31 0 0 0-2.66-.3q-.76 0-.76.15v1.3a34.07 34.07 0 0 0 .48 5.51 8.74 8.74 0 0 1-1.75-.27q-.29-4.37-.29-11.61a29.32 29.32 0 0 1 5-.55m7.35.52h3.14a10.41 10.41 0 0 1-.19 1.45q-3.59 0-3.59.24a3.11 3.11 0 0 0-.53 2.14 2.36 2.36 0 0 0 .52 1.83 5 5 0 0 0 1.25.15h.31a13.89 13.89 0 0 0 2.1-.22l.14 1a21 21 0 0 1-3.76.54 1.49 1.49 0 0 0-.44 1.11 1.32 1.32 0 0 0 .88 1.36h2.69q.42 0 .42.07a7 7 0 0 1 0 .84q0 .95-.22.95a21.59 21.59 0 0 1-2.54.41H184q-.77 0-.77-.18-.18 0-.18-2V8.15q0-6.28.52-7zm9.46-.55q2 0 2.9 2.43v.34a1.05 1.05 0 0 1-.46.75 1.38 1.38 0 0 0-.72-.4A1.31 1.31 0 0 0 197 3a1.45 1.45 0 0 0-.74-.27H196q-.85 0-1.15 1.21v.34a1.39 1.39 0 0 0 .72 1.35q.72.33 1.92.79a3 3 0 0 1 1.13 2.64 6.28 6.28 0 0 1-.82 2.69q-.89 1.35-1.87 1.35h-.43a3.2 3.2 0 0 1-1.77-.84 4.6 4.6 0 0 1-1.19-2.6q0-.41.56-.67a2.18 2.18 0 0 0 .47 1.06 3 3 0 0 0 1.21.77 1.88 1.88 0 0 0 .74.19 1.58 1.58 0 0 0 1.64-1v-.44q0-1.37-2.2-3a3.79 3.79 0 0 1-1-.75 3.66 3.66 0 0 1-.84-2.36A3 3 0 0 1 194.43 1a2.17 2.17 0 0 1 1.34-.36m5 .36a42.45 42.45 0 0 0 8 .69 6.15 6.15 0 0 1 .33.82V3a2.12 2.12 0 0 1-.07.82 35.61 35.61 0 0 1-3.57-.39 5.34 5.34 0 0 0-.09 1.27V5q0 .77.33 7 0 .72-.38.93a2.74 2.74 0 0 1-.87.13h-.17v-2.48q0-3.67-.24-7.45a1.45 1.45 0 0 0-.42 0h-.09a8.77 8.77 0 0 0-2.58.34v-.76a11 11 0 0 0-.15-1.63zm15.71.11a1.65 1.65 0 0 1 1 .35l.25 1.7A6.09 6.09 0 0 0 216.3 3h-.2q-.8 0-.8.21a2.4 2.4 0 0 0-.13.75q.1 1.65.1 2.72v.38q0 1.74-.12 3.33l.08 1 2.34-.11q.05.24.2 1.72h-.08l-1.88.05-2.9-.09a17.22 17.22 0 0 0-1.8.13l-.07-1 .31-.69h.07l2.39.05q.24 0 .41-.61-.22-2.59-.22-4.65 0-1.33.1-2.69a3.22 3.22 0 0 0-1-.46 16 16 0 0 0-2.3-.37l-.1-.79s2-.29 5.78-.79m4.26-.37v.17a5 5 0 0 0 .44 1.27q1.45 5 1.72 6.05a1.37 1.37 0 0 0 .71.31h.12q.22 0 .22-.24l.46-2.37 1-3.66a10.57 10.57 0 0 1 .4-1.15 9.52 9.52 0 0 1 1.45.43q-3.2 10.65-3.51 11.54l-.34.06h-.38a1.41 1.41 0 0 1-.85-.46v-.06a32.65 32.65 0 0 0-1.15-7.41q-1.25-3.62-1.25-3.87v-.31a6.12 6.12 0 0 1 .95-.31M233 .88q.89 0 1.82 1.61a6.42 6.42 0 0 1 .54 1.43 49.66 49.66 0 0 1 .72 5.54l.38 2.44q0 .41-1.38.83h-.29q-.29 0-.37-.58-.22-.9-.63-3.44-.2-.93-.35-.93h-.3q-.95 0-.95.21-.29 1-.83 3.85a11.25 11.25 0 0 1-.23 1.11L231 13h-.22a5.07 5.07 0 0 1-1.42-.57l-.16-.07a64.41 64.41 0 0 1 1-6.39 26.52 26.52 0 0 1 1-3.17 4.1 4.1 0 0 1 .7-1.34 1.62 1.62 0 0 1 1.1-.58m7.9-.45v.15q.07 1.27.11 9.69l.19.5a9.68 9.68 0 0 1 1.6-.15 6.43 6.43 0 0 1 1.84.27l.33 1.93q0 .19-.25.27h-4.65a32.59 32.59 0 0 1-.31-3.64l-.44-7.51a7 7 0 0 1 .35-1.34zm17.01.51q2 0 2.9 2.43v.33a1.05 1.05 0 0 1-.46.75 1.38 1.38 0 0 0-.72-.4 1.31 1.31 0 0 0-.52-.75 1.45 1.45 0 0 0-.74-.27h-.25q-.85 0-1.15 1.21v.34a1.39 1.39 0 0 0 .72 1.42q.72.33 1.92.79a3 3 0 0 1 1.13 2.64 6.28 6.28 0 0 1-.82 2.69q-.92 1.32-1.92 1.32h-.43a3.2 3.2 0 0 1-1.77-.84 4.6 4.6 0 0 1-1.19-2.6q0-.41.56-.67a2.18 2.18 0 0 0 .47 1.06 3 3 0 0 0 1.21.77 1.88 1.88 0 0 0 .74.19 1.58 1.58 0 0 0 1.64-1v-.46q0-1.37-2.2-3a3.79 3.79 0 0 1-1-.75 3.66 3.66 0 0 1-.84-2.36 3 3 0 0 1 1.29-2.53 2.17 2.17 0 0 1 1.34-.36m8.74-.89a22 22 0 0 0-.38 4.07v.54l.06 1.79.44.21q.72-1.27 2.07-3.9l.73-1.36a11.69 11.69 0 0 1 1.53.68 47 47 0 0 1-2.77 4.07l-.37.54a4.08 4.08 0 0 0 1 1.14q1.27 1.12 2.81 2.78a7.37 7.37 0 0 1 1 1.38 11 11 0 0 1-1.55.89q-2.46-3.52-3.85-5.3a.27.27 0 0 0-.22-.09.53.53 0 0 0-.44.32l-.12 5.64h-1.49L265 1.7a15.19 15.19 0 0 1 .18-1.61zm14.6.88a6.09 6.09 0 0 1 3.33 3 6.11 6.11 0 0 1 .57 2.45v.5a8.84 8.84 0 0 1-1.34 4.35 6.43 6.43 0 0 1-2.53 2.21 3 3 0 0 1-1.28.36h-.61a3.93 3.93 0 0 1-2.82-1.67 6.82 6.82 0 0 1-1-2A11 11 0 0 1 275 6.9a6.9 6.9 0 0 1 1.76-4.5 4.71 4.71 0 0 1 3.4-1.49l1 .12zM290 1a4.14 4.14 0 0 1 4 2.46 3.41 3.41 0 0 1 .19 1v.34a3.65 3.65 0 0 1-1.17 2.63 2.48 2.48 0 0 1-1.52.56 4.2 4.2 0 0 1-1.35-.34h-.17a.44.44 0 0 0-.4.49v.12l.25 5a6.75 6.75 0 0 1-1.46.17 22.69 22.69 0 0 0 .35-3.88V9.4q0-1.73-.48-5.9l-.08-1.41a1 1 0 0 1 .52-1A4.67 4.67 0 0 1 290 1m7.79-.18a15 15 0 0 0 5 1.08h.29a4.15 4.15 0 0 1 .1 1.06V3h-1.36a1.74 1.74 0 0 0-.25.76l.37 6.09a3.73 3.73 0 0 1-1.55 3 3.12 3.12 0 0 1-1.6.61h-.42a2.21 2.21 0 0 1-1.85-1.21 4.79 4.79 0 0 1-.45-2.08v-.51a3 3 0 0 1 .82-.15 3.28 3.28 0 0 0 .68 1.66 1.35 1.35 0 0 0 1 .49q1.15 0 1.82-1.86a4.91 4.91 0 0 0 .25-1.14 32.32 32.32 0 0 0-.29-4.85q0-.81-.25-.81h-1.01a2 2 0 0 1-1-.35q-.08-.31-.27-1.82m12.97.66h3.14a10.38 10.38 0 0 1-.12 1.51q-3.59 0-3.59.24a3.11 3.11 0 0 0-.57 2.15 2.36 2.36 0 0 0 .52 1.83 5 5 0 0 0 1.25.15h.31a13.89 13.89 0 0 0 2.1-.22l.14 1a21 21 0 0 1-3.76.54 1.49 1.49 0 0 0-.44 1.11 1.32 1.32 0 0 0 .88 1.36h2.69q.42 0 .42.07a7 7 0 0 1 0 .84q0 .95-.22.95a21.61 21.61 0 0 1-2.54.41h-2.5q-.77 0-.77-.18-.18 0-.18-2V8.54q0-6.28.52-7z" id="Layer_1-2" data-name="Layer 1"/></g></svg>