<svg xmlns="http://www.w3.org/2000/svg" viewBox="0 0 432 215.4"><defs><style>.cls-1{font-size:22.78px;stroke:#000;stroke-miterlimit:10;stroke-width:.25px;font-family:BadScript-Regular,Bad Script;letter-spacing:.06em}.cls-2{letter-spacing:-.21em}.cls-3{fill:#f8ec1f}</style></defs><title>Asset 1</title><g id="Layer_2" data-name="Layer 2"><g id="Layer_1-2" data-name="Layer 1"><text class="cls-1" transform="translate(307.86 200.51)">Kino<tspan class="cls-2" x="43.13" y="0"> </tspan><tspan x="47.8" y="0">Kultura</tspan></text><path transform="rotate(-9.79 284.868 193.771)" d="M270.35 179.78h29.33v28.16h-29.33z"/><path class="cls-3" d="M282.73 199.66q-1.47 0-1.47-2.67a17.11 17.11 0 0 1 .69-5q1.47-4.81 3.7-4.81a1.1 1.1 0 0 1 .59.17l.43.27a1.57 1.57 0 0 0 .34.17.44.44 0 0 1 .37.43c0 .22-.14.39-.41.52a.67.67 0 0 1-.3.06 1.48 1.48 0 0 1-.62-.29 1.46 1.46 0 0 0-.76-.29 1 1 0 0 0-.69.36 4.83 4.83 0 0 0-.78 1.13 18.39 18.39 0 0 0-1.53 6.83q0 1.93.6 1.93 1.1 0 3.08-5.12.12-.32.25-.82.52-2.07 1.28-2.07.51 0 .51 2.09v2.14a5 5 0 0 0 .43 2.55.59.59 0 0 0 .5.25 3.6 3.6 0 0 0 2.46-1 6 6 0 0 0 1.87-4.76 10.37 10.37 0 0 0-.23-2 10.48 10.48 0 0 0-.68-2.16 8 8 0 0 0-2.5-3.31 5.91 5.91 0 0 0-3.67-1.23 8.68 8.68 0 0 0-4.95 1.41 9.22 9.22 0 0 0-3.23 3.74 11.47 11.47 0 0 0-1.12 5q0 7.06 4.18 9.36a8 8 0 0 0 3.93 1 7.56 7.56 0 0 0 4.95-1.73 14 14 0 0 0 2-1.93q.82-1 1.35-1.62a.71.71 0 0 1 .44-.17.33.33 0 0 1 .38.38.71.71 0 0 1-.17.44q-.61.69-1.17 1.39t-1.17 1.32a10.3 10.3 0 0 1-3 2.21 8.92 8.92 0 0 1-3.9.78 8 8 0 0 1-4.22-1.17 9.65 9.65 0 0 1-4.32-6.45 14.39 14.39 0 0 1-.37-3.27 14.15 14.15 0 0 1 1.18-5.85 10.23 10.23 0 0 1 3.51-4.27A9.51 9.51 0 0 1 286 182a7.12 7.12 0 0 1 5.87 2.77q2.21 2.77 2.2 7.74a7 7 0 0 1-1.19 3.69 5 5 0 0 1-2.27 2 3.82 3.82 0 0 1-1.56.32 1.83 1.83 0 0 1-1.87-1.37 8.61 8.61 0 0 1-.3-2.64v-.78q-1.61 4.52-3.36 5.62a1.56 1.56 0 0 1-.79.31z"/><path d="M21.22 1.79a6.06 6.06 0 0 1 3.59 1.29l.91 6.24v.08a22.34 22.34 0 0 0-5.12-.7h-.72q-2.94 0-2.94.76a8.79 8.79 0 0 0-.48 2.74q.36 6 .36 10v1.4q0 6.38-.43 12.23l.31 3.67 8.59-.42q.19.87.72 6.33l-.29.14-6.91.2-10.7-.35a63.12 63.12 0 0 0-6.6.48l-.24-3.5 1.15-2.55.24.08 8.76.2q.88 0 1.51-2.24-.79-9.91-.79-17.44.07-4.87.38-9.85A11.82 11.82 0 0 0 8.83 8.9 58.63 58.63 0 0 0 .38 7.56L0 4.67q.14-.14 21.22-2.88M37.89.84q6.94 14.3 14.62 32.58a4.35 4.35 0 0 0 1.67.5h1.1q.65 0 .65-.7.31-3.69.31-7l-.48-10.58v-.59Q56 3.89 56.81 3.89l4.54-.2v.11q-.65 8.59-.65 15.31v1a202.79 202.79 0 0 0 1.6 24.29q-6.79 1.18-7.82 1.18v-.08A138.47 138.47 0 0 0 45.16 24Q43 19.9 41.4 19.9h-.89L38.77 24l-.1 17.58L38.6 45a50.29 50.29 0 0 1-7 .9l-.07-.11a368 368 0 0 0 2.19-43.66zM70.51.36h.07V1a18.34 18.34 0 0 0 1.63 4.65q5.33 18.25 6.29 22.17a5 5 0 0 0 2.61 1.12h.43q.81 0 .81-.87l1.7-8.7 3.78-13.44a38.77 38.77 0 0 1 1.48-4.23 35 35 0 0 1 5.31 1.6Q82.88 42.37 81.75 45.65l-1.24.22H79.1a5.17 5.17 0 0 1-3.1-1.68V44q0-10.16-4.21-27.18-4.6-13.29-4.6-14.22L67 1.48A22.42 22.42 0 0 1 70.51.36M114.88 2l7.85.08 3.85-.08.07.08v.06a38.12 38.12 0 0 1-.65 5.33h-.12q-13.18 0-13.18.87-2.08 2.16-2.08 7.89 0 5.18 1.89 6.72a18.19 18.19 0 0 0 4.59.56h1.15a51 51 0 0 0 7.7-.81l.53 3.72q-2.44.92-13.78 2a5.46 5.46 0 0 0-1.6 4.09 4.86 4.86 0 0 0 3.23 5l1 .17 5.26-.17h3.56q1.55 0 1.55.25a25.52 25.52 0 0 1 .14 3.08q-.17 3.47-.81 3.47a79.2 79.2 0 0 1-9.31 1.51l-3 .08h-6.15q-2.82 0-2.82-.64-.67 0-.67-7.28-.12 0-.14-9.94 0-23 1.89-25.61zm34.44-2q7.23 0 10.68 8.9l.07.73v.5a3.86 3.86 0 0 1-1.67 2.74h-.07a5.06 5.06 0 0 0-2.63-1.48 4.81 4.81 0 0 0-1.89-2.74 5.3 5.3 0 0 0-2.7-1h-.91q-3.13 0-4.23 4.42l-.07 1.23v.17q0 3.58 2.63 5 2.63 1.2 7 2.91 4.14 2.88 4.14 9.68 0 3.95-3 9.88-3.25 5-6.87 5h-1.6q-2.54 0-6.48-3.08-4.38-5.63-4.38-9.54 0-1.51 2.06-2.46a8 8 0 0 0 1.72 3.89 11 11 0 0 0 4.45 2.83 6.9 6.9 0 0 0 2.7.7q4.59 0 6-3.72l.14-1.15v-.5q0-5-8.06-10.86a13.89 13.89 0 0 1-3.61-2.74 13.43 13.43 0 0 1-3.09-8.65 11 11 0 0 1 4.74-9.26 8 8 0 0 1 4.93-1.4m18.11 1.54a155.72 155.72 0 0 0 29.23 2.52 22.57 22.57 0 0 1 1.22 3v1.67q0 2.77-.26 3a130.64 130.64 0 0 1-13.11-1.43v.08a19.6 19.6 0 0 0-.33 4.67v1.09q0 2.83 1.22 25.83 0 2.63-1.41 3.41a10.06 10.06 0 0 1-3.18.48h-.62v-.08h-.07l.07-9.1q0-13.46-.88-27.34a5.32 5.32 0 0 0-1.55-.14h-.33a32.16 32.16 0 0 0-9.45 1.26l-.07-.08.07-2.77a40.25 40.25 0 0 0-.55-6zm57.36.25a6.06 6.06 0 0 1 3.59 1.29l.91 6.24v.08a22.34 22.34 0 0 0-5.12-.7h-.72q-2.94 0-2.94.76a8.79 8.79 0 0 0-.51 2.74q.36 6 .36 10v1.4q0 6.38-.43 12.23l.31 3.67 8.59-.42q.19.87.72 6.33l-.29.14-6.91.2-10.64-.34a63.14 63.14 0 0 0-6.6.48l-.24-3.5 1.13-2.56.24.08 8.76.2q.88 0 1.51-2.24-.79-9.91-.79-17.44.07-4.87.38-9.85a11.83 11.83 0 0 0-3.68-1.68 58.61 58.61 0 0 0-8.44-1.34l-.38-2.88q.14-.14 21.22-2.88M253.46.53a14.27 14.27 0 0 1 10.31 4.62 9.38 9.38 0 0 1 2.51 6.16v.56q0 1.57-2.92 2h-.55q-2.18 0-4.09-2.52a8.42 8.42 0 0 0-5.91-2.69q-4.88 0-8.73 5.85-.84 1.18-2.56 7a20.15 20.15 0 0 0-.48 4.06q0 5.23 6.17 10.55a5.82 5.82 0 0 0 3 1.15h1.32a8 8 0 0 0 6.87-4 4.42 4.42 0 0 0 .62-2.21V31q0-2-2.42-2.57l-3.54.73H253q-.36 0-.62-.5v-3.47q-.22 0-.22-.17t5.84-1.15l1.46-.08a5.48 5.48 0 0 1 5.62 4.14 38.94 38.94 0 0 1 1.17 10.89v3.89q0 5-.14 8.17l-.07.08h-5.12l-.07-.08h-.07l-.07-5.82v-1.37q-.17-2-1.32-2-.81 0-2.15 2.27a3.82 3.82 0 0 1-3 1.4h-.89q-10.6 0-16-8.45a21.88 21.88 0 0 1-2.73-11 29.79 29.79 0 0 1 5.81-17.21l8.11-6.89a9.5 9.5 0 0 1 4.92-1.28m31.6.39q3.28 0 6.67 5.91a23.54 23.54 0 0 1 2 5.23q1.17 4.81 2.66 20.32l1.41 9q0 1.51-5.07 3.05l-1.05.17q-1.08 0-1.34-2.13-.79-3.3-2.32-12.62-.74-3.41-1.27-3.41l-.6-.08h-.53q-3.47 0-3.47.78-1.08 3.67-3.06 14.11a41.27 41.27 0 0 1-.86 4.06l-.6.22h-.81q-1 0-5.19-2.1l-.6-.25a236.13 236.13 0 0 1 3.66-23.43 97.07 97.07 0 0 1 3.54-11.61q1.56-4 2.58-4.9a5.94 5.94 0 0 1 4.25-2.32m18.08.62a155.71 155.71 0 0 0 29.23 2.52 22.53 22.53 0 0 1 1.22 3v1.67q0 2.77-.26 3a130.64 130.64 0 0 1-13.11-1.43v.08a19.58 19.58 0 0 0-.33 4.67v1.09q0 2.83 1.22 25.83 0 2.63-1.41 3.41a10.05 10.05 0 0 1-3.18.48h-.62v-.08h-.07l.07-9.1q0-13.46-.89-27.34a5.32 5.32 0 0 0-1.55-.14h-.33a32.16 32.16 0 0 0-9.45 1.26l-.07-.08.07-2.77a40.25 40.25 0 0 0-.55-6zm57.36.25a6.06 6.06 0 0 1 3.59 1.29l.91 6.24v.08a22.34 22.34 0 0 0-5.12-.7h-.72q-2.94 0-2.94.76a8.79 8.79 0 0 0-.48 2.74q.36 6 .36 10v1.4q0 6.38-.43 12.23l.31 3.67 8.59-.42q.19.87.72 6.33l-.29.14-6.91.2-10.64-.34a63.14 63.14 0 0 0-6.6.48l-.24-3.5 1.15-2.55.24.08 8.76.2q.88 0 1.51-2.24-.79-9.91-.79-17.44.07-4.87.38-9.85a11.83 11.83 0 0 0-3.68-1.68 58.62 58.62 0 0 0-8.44-1.34l-.38-2.88q.14-.14 21.22-2.88M375.86.36h.07V1a18.32 18.32 0 0 0 1.63 4.65q5.33 18.28 6.29 22.19a5 5 0 0 0 2.61 1.12h.43q.81 0 .81-.87l1.7-8.7 3.78-13.43a38.77 38.77 0 0 1 1.48-4.23A34.92 34.92 0 0 1 400 3.3q-11.77 39.07-12.9 42.35l-1.24.22h-1.41a5.17 5.17 0 0 1-3.11-1.68V44q0-10.16-4.21-27.18-4.59-13.29-4.59-14.22l-.14-1.12a22.41 22.41 0 0 1 3.46-1.12M420.23 2l7.85.08 3.85-.08.07.08v.06a38.19 38.19 0 0 1-.69 5.32h-.12Q418 7.47 418 8.34q-2.08 2.16-2.08 7.89 0 5.18 1.89 6.72a18.19 18.19 0 0 0 4.59.56h1.15a51 51 0 0 0 7.7-.81l.53 3.72q-2.44.92-13.78 2a5.46 5.46 0 0 0-1.6 4.09 4.86 4.86 0 0 0 3.23 5l1 .17 5.26-.17h3.56q1.55 0 1.55.25a25.62 25.62 0 0 1 .14 3.08q-.17 3.47-.81 3.47a79.2 79.2 0 0 1-9.33 1.48l-3 .08h-6.15q-2.82 0-2.82-.64-.67 0-.67-7.28-.12 0-.14-9.94 0-23 1.89-25.61zM24.14 57.41q4.11.08 4.11.45v6.8q0 1-.19 1l-1.15.08L17 65q-5.41.28-6 1.09a2.55 2.55 0 0 0-.48 1.76v.81a9.5 9.5 0 0 0 1.15 4.87l.07.08 3.37-.08q9 .31 9 .81v4.06l-.07.08v.08a96.51 96.51 0 0 0-9.76-1.09q-2.78 0-2.77.56l-.14 4.76A125 125 0 0 0 13.23 103h-.07q-6.41-.76-6.41-1-1.08-16-1.08-42.58a107.57 107.57 0 0 1 18.47-2m31.74 1.53a6.06 6.06 0 0 1 3.59 1.29l.91 6.24v.08a22.35 22.35 0 0 0-5.12-.7h-.72q-2.94 0-2.94.76a8.79 8.79 0 0 0-.48 2.74q.36 6 .36 10v1.4q0 6.38-.43 12.23l.31 3.67 8.59-.42q.19.87.72 6.32l-.29.14-6.91.2-10.64-.34a63.15 63.15 0 0 0-6.6.48l-.24-3.5L37.07 97l.24.08 8.76.2q.88 0 1.51-2.24-.79-9.91-.79-17.44.07-4.87.38-9.85a11.83 11.83 0 0 0-3.68-1.68A58.65 58.65 0 0 0 35 64.71l-.38-2.88q.14-.14 21.22-2.88m17.77-2.52l.14.56q.26 4.65.41 35.54l.69 1.85a35.49 35.49 0 0 1 5.86-.56 23.59 23.59 0 0 1 6.75 1l1.2 7.08v.1q0 .7-.91 1h-.43l-16.63-.17a119.55 119.55 0 0 1-1.12-13.35L68 62q.93-4.9 1.12-4.9zm20.83.57l.07-.08h1.12l4 8.48A79.64 79.64 0 0 0 107 77.53l1.87 2a77 77 0 0 0 7.56-13.49q1.32-3.25 2.25-6a6.48 6.48 0 0 1 3-1.06 1.92 1.92 0 0 1 1.2.45l-.07 12.87v11.58l2.25 17q-.38.17-7.15.92a15.86 15.86 0 0 1-.72-5l.19-3.33-.53-13.69-8 7.86h-.07l-8.8-9.24v.08Q99.61 89 99.61 96.9v5.29l.07.39q0 .2-6.7.59l-.07-.08a34.2 34.2 0 0 0 .93-7.84l.72-21zm91.86.41q4.11.08 4.11.45v6.8q0 1-.19 1l-1.15.08-9.93-.74q-5.41.28-6 1.09a2.55 2.55 0 0 0-.48 1.76v.81a9.5 9.5 0 0 0 1.15 4.87l.07.08 3.37-.08q9 .31 9 .81v4.06l-.07.08v.08a96.51 96.51 0 0 0-9.76-1.09q-2.78 0-2.77.56l-.14 4.76a125 125 0 0 0 1.88 20.21h-.07q-6.41-.76-6.41-1-1.08-16-1.08-42.6a107.56 107.56 0 0 1 18.47-2m27.12 1.77l7.85.08 3.85-.08.07.08v.06a38.19 38.19 0 0 1-.69 5.32h-.12q-13.18 0-13.18.87-2.08 2.16-2.08 7.89 0 5.18 1.89 6.72a18.19 18.19 0 0 0 4.59.56h1.15a51 51 0 0 0 7.7-.81l.53 3.72q-2.44.92-13.78 2a5.46 5.46 0 0 0-1.6 4.09 4.86 4.86 0 0 0 3.23 5l1 .17 5.26-.17h3.56q1.55 0 1.55.25a25.62 25.62 0 0 1 .1 3.08q-.17 3.47-.81 3.47a79.19 79.19 0 0 1-9.31 1.51l-3 .08H205q-2.82 0-2.82-.64-.67 0-.67-7.28-.12 0-.14-9.94 0-23 1.89-25.61zm34.69-2.01q7.22 0 10.64 8.9l.07.73v.5a3.86 3.86 0 0 1-1.67 2.71h-.07a5.06 5.06 0 0 0-2.63-1.48 4.8 4.8 0 0 0-1.89-2.74 5.3 5.3 0 0 0-2.7-1h-.91q-3.13 0-4.23 4.42l-.07 1.23v.17q0 3.58 2.63 5 2.63 1.2 7 2.91 4.14 2.88 4.14 9.68 0 3.95-3 9.88-3.25 5-6.87 5H247q-2.54 0-6.48-3.08-4.38-5.63-4.38-9.54 0-1.51 2.06-2.46a8 8 0 0 0 1.72 3.89 11 11 0 0 0 4.45 2.83 6.9 6.9 0 0 0 2.7.7q4.59 0 6-3.72l.14-1.15V90q0-5-8.06-10.86a13.89 13.89 0 0 1-3.61-2.74 13.43 13.43 0 0 1-3.09-8.65 11 11 0 0 1 4.74-9.26 7.94 7.94 0 0 1 4.9-1.32m18.37 1.52a155.71 155.71 0 0 0 29.23 2.52 22.57 22.57 0 0 1 1.22 3v1.68q0 2.77-.26 3a130.64 130.64 0 0 1-13.11-1.43v.08a19.58 19.58 0 0 0-.33 4.67v1.09q0 2.83 1.22 25.83 0 2.63-1.41 3.41a10.06 10.06 0 0 1-3.18.48h-.62v-.08h-.07l.07-9.1q0-13.46-.89-27.34a5.32 5.32 0 0 0-1.55-.14h-.33a32.16 32.16 0 0 0-9.45 1.26l-.07-.08.07-2.77a40.25 40.25 0 0 0-.55-6zm57.61.26a6.06 6.06 0 0 1 3.59 1.29l.91 6.24v.08a22.35 22.35 0 0 0-5.12-.7h-.72q-2.94 0-2.94.76a8.79 8.79 0 0 0-.48 2.74q.36 6 .36 10v1.4q0 6.38-.43 12.23l.31 3.67 8.59-.42q.19.87.72 6.32l-.29.14-6.91.2-10.66-.35a63.15 63.15 0 0 0-6.6.48l-.24-3.5 1.11-2.53.24.08 8.75.2q.88 0 1.51-2.24-.77-9.93-.77-17.45.07-4.87.38-9.85a11.83 11.83 0 0 0-3.68-1.68 58.65 58.65 0 0 0-8.44-1.34l-.38-2.88q.14-.14 21.22-2.88m15.58-1.44h.07v.62a18.33 18.33 0 0 0 1.63 4.65q5.33 18.28 6.29 22.19a5 5 0 0 0 2.61 1.12h.43q.81 0 .81-.87l1.7-8.7L357 63.09a38.77 38.77 0 0 1 1.48-4.23 34.92 34.92 0 0 1 5.31 1.6Q352 99.53 350.92 102.8l-1.24.22h-1.41a5.17 5.17 0 0 1-3.11-1.68v-.22q0-10.16-4.21-27.18-4.59-13.27-4.59-14.19l-.14-1.12a22.46 22.46 0 0 1 3.47-1.12m45.15.57q3.28 0 6.67 5.91a23.55 23.55 0 0 1 2 5.23q1.17 4.81 2.66 20.32l1.41 9q0 1.51-5.07 3.05l-1.05.17q-1.08 0-1.34-2.13-.79-3.3-2.32-12.62-.74-3.41-1.27-3.41l-.6-.08h-.53q-3.47 0-3.47.78-1.08 3.67-3.06 14.11a41.28 41.28 0 0 1-.86 4.06l-.6.22h-.81q-1 0-5.19-2.1l-.6-.25a236.25 236.25 0 0 1 3.66-23.43A97.29 97.29 0 0 1 378 65.24q1.56-4 2.58-4.9a5.94 5.94 0 0 1 4.26-2.27m28.82-1.64l.14.56q.26 4.65.41 35.54l.69 1.85a35.49 35.49 0 0 1 5.86-.56 23.59 23.59 0 0 1 6.75 1l1.2 7.08v.1q0 .7-.91 1h-.43l-16.63-.17a119.55 119.55 0 0 1-1.12-13.35L408 62q.93-4.9 1.12-4.9zm-187.6 57.88q7.22 0 10.64 8.9l.07.73v.5a3.86 3.86 0 0 1-1.67 2.74h-.1a5.06 5.06 0 0 0-2.63-1.48 4.8 4.8 0 0 0-1.89-2.74 5.3 5.3 0 0 0-2.7-1h-.91q-3.13 0-4.23 4.42l-.07 1.23v.17q0 3.58 2.63 5 2.63 1.2 7 2.91 4.14 2.88 4.14 9.68 0 3.95-3 9.88-3.25 5-6.87 5h-1.58q-2.54 0-6.48-3.08-4.38-5.63-4.38-9.54 0-1.51 2.06-2.46a8 8 0 0 0 1.72 3.89 11 11 0 0 0 4.45 2.83 6.9 6.9 0 0 0 2.7.7q4.59 0 6-3.72l.14-1.15v-.5q0-5-8.06-10.86a13.89 13.89 0 0 1-3.61-2.74 13.43 13.43 0 0 1-3.09-8.65 11 11 0 0 1 4.74-9.26 7.94 7.94 0 0 1 4.9-1.32m31.79-3.52l.07.08a80.65 80.65 0 0 0-1.41 14.95v2l.22 6.58 1.63.76h.07q2.63-4.67 7.61-14.3l2.68-5a42.89 42.89 0 0 1 5.62 2.49 172.33 172.33 0 0 1-10.17 14.95l-1.34 2q.41 1.18 3.76 4.17 4.66 4.11 10.31 10.22a27 27 0 0 1 3.83 5.07q-5.26 3.25-5.69 3.25-9-12.93-14.11-19.45a1 1 0 0 0-.79-.34 2 2 0 0 0-1.63 1.18l-.43 20.65-.07.06h-5.45l-.14-.14-.34-42.94a55.74 55.74 0 0 1 .65-5.91h.07zm53.55 3.22h.1a21.59 21.59 0 0 1 14.33 20v1.85q0 7.36-4.93 16-4.88 6.38-9.28 8.09a10.83 10.83 0 0 1-4.69 1.32h-2.22q-5 0-10.33-6.13a25 25 0 0 1-3.64-7.19 40.21 40.21 0 0 1-1.89-11.81q0-8.79 6.46-16.51a17.28 17.28 0 0 1 12.44-5.46l3.54.45zm32.39.44q10.57 0 14.88 9a12.52 12.52 0 0 1 .69 3.75v1.26a13.4 13.4 0 0 1-4.28 9.66 9.08 9.08 0 0 1-5.57 2 15.39 15.39 0 0 1-5-1.26l-.62-.08a1.62 1.62 0 0 0-1.46 1.79l-.07.45.93 18.42q0 .22-5.36.62l-.07-.08a83.22 83.22 0 0 0 1.29-14.22v-.53q0-6.35-1.75-21.63l-.31-5.18A3.6 3.6 0 0 1 339 115q0-.25 4.74-.45m28.58-.66h.07q10.79 3.95 18.23 3.95h1.05q.19 0 .36 3.89v.08h-5a6.4 6.4 0 0 0-.93 2.8l1.36 22.33q0 6.44-5.67 11a11.43 11.43 0 0 1-5.88 2.24h-1.53q-3.92 0-6.77-4.45a17.56 17.56 0 0 1-1.65-7.64v-1.79a10.88 10.88 0 0 1 3-.56q.84 4.39 2.51 6.1a4.94 4.94 0 0 0 3.64 1.79q4.21 0 6.67-6.83a18 18 0 0 0 .93-4.17 118.56 118.56 0 0 0-1.05-17.8q-.12-3-.91-3l-.5-.06-3.18.06a7.51 7.51 0 0 1-3.76-1.29q-.31-1.12-1-6.69m47.69 2.48l7.85.08 3.85-.08.07.08v.06a38.06 38.06 0 0 1-.69 5.32H431q-13.18 0-13.18.87-2.08 2.16-2.08 7.89 0 5.18 1.89 6.72a18.19 18.19 0 0 0 4.59.56h1.15A50.94 50.94 0 0 0 431 137l.53 3.72q-2.44.92-13.78 2a5.46 5.46 0 0 0-1.6 4.09 4.86 4.86 0 0 0 3.23 5l1 .17 5.26-.17h3.56q1.55 0 1.55.25a25.52 25.52 0 0 1 .14 3.08q-.17 3.47-.81 3.47a79.26 79.26 0 0 1-9.31 1.51l-3 .08h-6.15q-2.82 0-2.82-.64-.67 0-.67-7.28-.12 0-.14-9.94 0-23 1.89-25.61z"/></g></g></svg>