<svg xmlns="http://www.w3.org/2000/svg" viewBox="0 0 154.13 53.15"><title>link-bg</title><g data-name="Layer 2"><path d="M151.18 2.38C129.24.54 107 0 84.77.13h-.12Q77 .17 69.36.29s-24-1.18-34.77 1.24c-4.66 1.05-12.34-3.7-15.51 2l4.64.09C19 7 14.44 3.42 9.78 4.48c0 2.3 0 3.44-1.61 4.56 3.1.06 7.76-1 10.84.22v3.44c-3.11 1.09-7.73-1.3-10.84-.22l-.06 4.6c0 1.15-1.56 1.12-3.11 1.08l6.19.13-.06 4.59C11.06 24 9.51 24 8 24c0 2.29-1.61 4.56-.08 5.74l4.65.09c-6.21 1-9.38 6.7-9.43 10.15 1.57-1.12 1.52 2.33 3.08 1.21C1.49 44.5-3.22 49 3 50.27c21.93 1.84 44.14 2.35 66.41 2.25h.12c5.1 0 15.29.44 15.29.44 11.73.28 24 .59 34.77-1.84 4.66-1.05 12.34 3.7 15.51-2l-4.69-.12c4.69-3.35 9.29.19 13.95-.87 0-2.3 0-3.44 1.61-4.56-3.1-.06-7.76 1-10.84-.22v-3.44c3.11-1.09 7.73 1.3 10.84.22l.06-4.6c0-1.15 1.56-1.12 3.11-1.08l-6.14-.08.06-4.59c0-1.15 1.56-1.12 3.11-1.09 0-2.29 1.61-4.56.08-5.74l-4.65-.09c6.21-1 9.38-6.7 9.43-10.15-1.57 1.12-1.52-2.33-3.08-1.21 4.7-3.35 9.41-7.85 3.23-9.12z" data-name="Layer 1"/></g></svg>