<svg xmlns="http://www.w3.org/2000/svg" viewBox="0 0 99.88 90"><defs><style>.cls-1{fill:#fff}</style></defs><title>logo</title><g id="Layer_2" data-name="Layer 2"><g id="Layer_1-2" data-name="Layer 1"><path class="cls-1" d="M35.38 9.89a1.5 1.5 0 1 0-2.64 1.42 15.78 15.78 0 1 1-4.54-5.23A1.5 1.5 0 0 0 30 3.66a18.82 18.82 0 1 0-16.3 33.25l-.7 8.24h-1.69v43.74h15V83h-2.1v3.78h-10.8V47.25h10.82v5.63h2.1v-7.73h-1.66L24 36.91a18.81 18.81 0 0 0 11.43-27zm-12.85 35H15.1l.65-7.52a18.68 18.68 0 0 0 6.13 0z"/><path class="cls-1" d="M20.3 2.28a14.86 14.86 0 1 0 14.86 14.86A14.86 14.86 0 0 0 20.3 2.28zm-4.66 6.28a10.59 10.59 0 0 0-1.83.83 1.58 1.58 0 0 1-1.58-2.73 13.78 13.78 0 0 1 2.37-1.08 1.58 1.58 0 1 1 1 3zm14.05 18.2a1.58 1.58 0 0 1-1.22-2.39A10.82 10.82 0 0 0 20.56 8a1.58 1.58 0 0 1-1.37-1.76 1.56 1.56 0 0 1 1.76-1.34A14 14 0 0 1 31.17 26a1.58 1.58 0 0 1-1.48.76zM17.78 54.37h.91v7.72h-.91zm3.03.82v-.95h.33l5.83 7v1h-.33zm0 .92l.91 1.1v4.88h-.91zM26 59.26v-4.89h1v6zm6.4 2.19l-.33.77h-.34l-3.35-7.85h1zm.32-.74l-.49-1.16 2.19-5.18h1zm4.13-6.34h4.95v.82h-4v6.08h4.18v.82h-5.13zm1.49 3.19h2.53v.78h-2.53zm4.55 3l.68-.5a2.57 2.57 0 0 0 2.15 1.32 3.11 3.11 0 0 0 1-.18v.85a3 3 0 0 1-1 .16 3.25 3.25 0 0 1-2.83-1.65zm4.39-.35c0-.83-.53-1.11-1.29-1.47l-.87-.41c-.9-.43-1.74-1-1.74-2.06a1.86 1.86 0 0 1 .95-1.63v1.45c0 .82.54 1.08 1.24 1.42l.85.41c1.13.54 1.8 1.11 1.8 2.15a2 2 0 0 1-.95 1.72zm-1.56-5.12a2.25 2.25 0 0 0-.82.15v-.87a2.77 2.77 0 0 1 .84-.13 2.84 2.84 0 0 1 2.39 1.31l-.67.5a2.07 2.07 0 0 0-1.74-.96zm3.44-.72h6.35v.82h-6.35zm2.71 1.39h.91v6.33h-.91zm4.93-1.39h.91v7.72h-.91zm2.53 3.85a3.69 3.69 0 0 1 .95-2.54v2.52a3.06 3.06 0 0 0 3.1 3.19A3.14 3.14 0 0 0 66 60.1v-.55h.91v.73a4 4 0 0 1-3.51 1.94 4 4 0 0 1-4.07-4zm4-3.13a3.41 3.41 0 0 0-2.48 1.1v-1.08a3.95 3.95 0 0 1 5.63.71l-.69.54a2.93 2.93 0 0 0-2.45-1.27zm0 3.08h3.54V59h-3.54zm7.12-2.45l.48 1.13-1.23 2.85h2.46l.35.82h-3.16l-.66 1.57h-1zm.3-.74l.33-.74h.34l3.35 7.85h-1zm3.73-.61h6.35v.82h-6.35zm2.71 1.39h.91v6.33h-.91zm4.93-1.39H83v7.72h-.91zm6.34 7.08l-.33.77h-.34l-3.35-7.85h1zm.32-.74l-.49-1.16 2.19-5.18h1zm4.13-6.34h4.95v.82h-4v6.08H98v.82h-5.09zm1.49 3.19h2.53v.78h-2.54zM38.61 88.34l.68-.5a2.57 2.57 0 0 0 2.15 1.32 3.11 3.11 0 0 0 1-.18v.85a3 3 0 0 1-1 .16 3.25 3.25 0 0 1-2.83-1.65zM43 88c0-.83-.53-1.11-1.29-1.47l-.87-.41c-.9-.43-1.74-1-1.74-2.06a1.86 1.86 0 0 1 .9-1.64v1.45c0 .82.54 1.08 1.24 1.42l.85.41c1.13.54 1.8 1.11 1.8 2.15a2 2 0 0 1-.89 1.72zm-1.56-5.12a2.25 2.25 0 0 0-.82.15v-.87a2.77 2.77 0 0 1 .84-.13 2.84 2.84 0 0 1 2.39 1.31l-.67.5a2.07 2.07 0 0 0-1.74-.98zm4.28-.73h.91v7.72h-.91zm6 7.72h-1.14l-3.5-4.14 3.18-3.58h1.12l-3.16 3.57zM53 86a3.06 3.06 0 0 0 3 3.16 3.48 3.48 0 0 0 2.49-1.1v1.08a3.84 3.84 0 0 1-2.48.87 4 4 0 0 1-4-4 3.63 3.63 0 0 1 .99-2.55zm7.07.07a3.63 3.63 0 0 1-.94 2.52V86a3.06 3.06 0 0 0-3.06-3.18A3.41 3.41 0 0 0 53.58 84v-1.11A3.79 3.79 0 0 1 56 82a4 4 0 0 1 4.06 4zm6.8-1.68a2.23 2.23 0 0 1-2.47 2.25h-1.23v-.8h1.22a1.38 1.38 0 0 0 1.54-1.44 1.4 1.4 0 0 0-1.54-1.45H62.6v6.93h-.91v-7.73h2.71a2.23 2.23 0 0 1 2.47 2.24zM70 88.08A1.78 1.78 0 0 1 68 90a4.47 4.47 0 0 1-1-.13v-.78a5.54 5.54 0 0 0 .84.07c.75 0 1.28-.23 1.28-1.16v-5.85H70zm2.07-5.93H77V83h-4v6.08h4.18v.82h-5.11zm1.49 3.19h2.53v.78h-2.53z"/><path class="cls-1" transform="rotate(-90 18.665 64.875)" d="M17.37 63.44h2.59v2.87h-2.59z"/><path class="cls-1" transform="rotate(-90 22.875 64.875)" d="M21.58 63.44h2.59v2.87h-2.59z"/><path class="cls-1" transform="rotate(-90 27.085 64.875)" d="M25.79 63.44h2.59v2.87h-2.59z"/><path class="cls-1" transform="rotate(-90 31.295 64.875)" d="M30 63.44h2.59v2.87H30z"/><path class="cls-1" transform="rotate(-90 35.505 64.875)" d="M34.21 63.44h2.59v2.87h-2.59z"/><path class="cls-1" transform="rotate(-90 39.715 64.875)" d="M38.42 63.44h2.59v2.87h-2.59z"/><path class="cls-1" transform="rotate(-90 39.645 64.875)" d="M38.35 63.44h2.59v2.87h-2.59z"/><path class="cls-1" transform="rotate(-90 43.855 64.875)" d="M42.56 63.44h2.59v2.87h-2.59z"/><path class="cls-1" transform="rotate(-90 48.065 64.875)" d="M46.77 63.44h2.59v2.87h-2.59z"/><path class="cls-1" transform="rotate(-90 52.275 64.875)" d="M50.98 63.44h2.59v2.87h-2.59z"/><path class="cls-1" transform="rotate(-90 56.485 64.875)" d="M55.19 63.44h2.59v2.87h-2.59z"/><path class="cls-1" transform="rotate(-90 60.695 64.875)" d="M59.4 63.44h2.59v2.87H59.4z"/><path class="cls-1" transform="rotate(-90 60.625 64.875)" d="M59.33 63.44h2.59v2.87h-2.59z"/><path class="cls-1" transform="rotate(-90 64.835 64.875)" d="M63.54 63.44h2.59v2.87h-2.59z"/><path class="cls-1" transform="rotate(-90 69.045 64.875)" d="M67.75 63.44h2.59v2.87h-2.59z"/><path class="cls-1" transform="rotate(-90 73.255 64.875)" d="M71.96 63.44h2.59v2.87h-2.59z"/><path class="cls-1" transform="rotate(-90 77.465 64.875)" d="M76.17 63.44h2.59v2.87h-2.59z"/><path class="cls-1" transform="rotate(-90 81.675 64.875)" d="M80.38 63.44h2.59v2.87h-2.59z"/><path class="cls-1" transform="rotate(-90 81.6 64.87)" d="M80.31 63.44h2.59v2.87h-2.59z"/><path class="cls-1" transform="rotate(-90 85.81 64.87)" d="M84.52 63.44h2.59v2.87h-2.59z"/><path class="cls-1" transform="rotate(-90 90.02 64.87)" d="M88.73 63.44h2.59v2.87h-2.59z"/><path class="cls-1" transform="rotate(-90 94.235 64.875)" d="M92.94 63.44h2.59v2.87h-2.59z"/><path class="cls-1" transform="rotate(-90 98.445 64.875)" d="M97.15 63.44h2.59v2.87h-2.59z"/><path class="cls-1" transform="rotate(-90 18.665 79.775)" d="M17.37 78.34h2.59v2.87h-2.59z"/><path class="cls-1" transform="rotate(-90 22.875 79.775)" d="M21.58 78.34h2.59v2.87h-2.59z"/><path class="cls-1" transform="rotate(-90 27.085 79.775)" d="M25.79 78.34h2.59v2.87h-2.59z"/><path class="cls-1" transform="rotate(-90 31.295 79.775)" d="M30 78.34h2.59v2.87H30z"/><path class="cls-1" transform="rotate(-90 35.505 79.775)" d="M34.21 78.34h2.59v2.87h-2.59z"/><path class="cls-1" transform="rotate(-90 39.715 79.775)" d="M38.42 78.34h2.59v2.87h-2.59z"/><path class="cls-1" transform="rotate(-90 39.645 79.775)" d="M38.35 78.34h2.59v2.87h-2.59z"/><path class="cls-1" transform="rotate(-90 43.855 79.775)" d="M42.56 78.34h2.59v2.87h-2.59z"/><path class="cls-1" transform="rotate(-90 48.065 79.775)" d="M46.77 78.34h2.59v2.87h-2.59z"/><path class="cls-1" transform="rotate(-90 52.275 79.775)" d="M50.98 78.34h2.59v2.87h-2.59z"/><path class="cls-1" transform="rotate(-90 56.485 79.775)" d="M55.19 78.34h2.59v2.87h-2.59z"/><path class="cls-1" transform="rotate(-90 60.695 79.775)" d="M59.4 78.34h2.59v2.87H59.4z"/><path class="cls-1" transform="rotate(-90 60.625 79.775)" d="M59.33 78.34h2.59v2.87h-2.59z"/><path class="cls-1" transform="rotate(-90 64.835 79.775)" d="M63.54 78.34h2.59v2.87h-2.59z"/><path class="cls-1" transform="rotate(-90 69.045 79.775)" d="M67.75 78.34h2.59v2.87h-2.59z"/><path class="cls-1" transform="rotate(-90 73.255 79.775)" d="M71.96 78.34h2.59v2.87h-2.59z"/><path class="cls-1" transform="rotate(-90 77.465 79.775)" d="M76.17 78.34h2.59v2.87h-2.59z"/><path class="cls-1" transform="rotate(-90 81.675 79.775)" d="M80.38 78.34h2.59v2.87h-2.59z"/><path class="cls-1" transform="rotate(-90 81.6 79.77)" d="M80.31 78.34h2.59v2.87h-2.59z"/><path class="cls-1" transform="rotate(-90 85.815 79.775)" d="M84.52 78.34h2.59v2.87h-2.59z"/><path class="cls-1" transform="rotate(-90 90.025 79.775)" d="M88.73 78.34h2.59v2.87h-2.59z"/><path class="cls-1" transform="rotate(-90 94.235 79.775)" d="M92.94 78.34h2.59v2.87h-2.59z"/><path class="cls-1" transform="rotate(-90 98.445 79.775)" d="M97.15 78.34h2.59v2.87h-2.59z"/><path class="cls-1" d="M19.42 76.11h-1.84v-8h5.34v1.69h-3.5zm-1.58-.26h1.32v-6.29h3.5v-1.17h-4.81zm4.45-2.67h-2.64v-1.69h2.64zm-2.37-.26H22v-1.17h-2.08zm6 3.19h-1.84v-8h1.84zm-1.58-.26h1.32v-7.46h-1.32zm8.54.26h-5.22v-1.69h5.22zm-5-.26h4.7v-1.16h-4.7zm1.62-1.65h-1.84v-6.07h1.84zm-1.58-.26h1.32v-5.55h-1.32zm13.92 2.17H40V72.6l1.84-2.22zm-1.58-.26h1.32v-4.74l-1.32 1.59zm-4.4.26H34v-5.73l1.84 2.22zm-1.58-.26h1.32V72.7l-1.32-1.59zm4-1.42h-.64L34 70v-2h.71l3.2 4.12L41.13 68h.71v2zm-.51-.26h.39l3.45-4.27v-1.65h-.32l-3.33 4.28-3.36-4.28h-.32v1.65zm11.17 1.94H47.1v-8h5.34v1.69h-3.5zm-1.58-.26h1.32v-6.29h3.5v-1.17h-4.81zm4.44-2.67h-2.63v-1.69h2.64zm-2.37-.26h2.11v-1.17h-2.1zm9.76 3.19H53.6v-8h5.46v1.69h-3.62v4.6h3.76zm-5.33-.26h5.07v-1.16h-3.75v-5.13h3.61v-1.17h-4.93zm4.25-3.13h-2.44v-1.6h2.44zm-2.18-.26h1.91v-1.07h-1.91zm7.24 3.79A3.49 3.49 0 0 1 60 74.48l-.06-.1 1.29-1 .08.11a2.14 2.14 0 0 0 1.79 1.07 2.4 2.4 0 0 0 .56-.08h.16v1.69h-.1a2.39 2.39 0 0 1-.55.08zm-2.87-1.8A3.2 3.2 0 0 0 63.17 76a2.06 2.06 0 0 0 .41 0v-1.2a2.41 2.41 0 0 1-.47 0 2.34 2.34 0 0 1-1.92-1.07zm3.78 1.63v-2c0-.61-.3-.75-.91-1l-.83-.37c-.91-.41-1.95-1-1.95-2.34a2.18 2.18 0 0 1 1.7-2.11h.17v1.94c0 .55.28.71.82 1l.88.39c1.41.62 2 1.31 2 2.38A2.26 2.26 0 0 1 64.25 76zM62 68.5a1.87 1.87 0 0 0-1.34 1.81c0 .89.55 1.54 1.79 2.1l.83.37c.62.28 1.06.49 1.06 1.27v1.66a2 2 0 0 0 1.34-1.91c0-.94-.53-1.56-1.83-2.14l-.85-.38c-.5-.23-1-.45-1-1.2zm2.53 2.1l-.08-.12a1.58 1.58 0 0 0-1.39-.83 1.53 1.53 0 0 0-.4.07h-.17v-1.7h.1a2.25 2.25 0 0 1 .47-.06 2.91 2.91 0 0 1 2.68 1.53l.05.1zm-1.47-1.21a1.79 1.79 0 0 1 1.53.83l.88-.68a2.66 2.66 0 0 0-2.39-1.3 1.69 1.69 0 0 0-.31 0v1.14a1.53 1.53 0 0 1 .29.01zm7.83 6.72h-1.84V70h1.84zm-1.58-.26h1.32v-5.54h-1.31zm4.06-6h-6.79v-1.72h6.79zm-6.53-.26h6.26v-1.2h-6.25zm9.39 6.52h-1.84v-8h1.84zm-1.58-.26H76v-7.46h-1.35zm6.78.4h-.7l-3.57-8.12h2.08l2.86 6.58zM80.9 76h.36l.56-1.28-2.75-6.31h-1.5zm1.34-1.59l-1-2.33 1.71-3.95H85zm-.75-2.33l.74 1.67 2.34-5.36h-1.48zM92 76.11h-2l-2.9-6.73.66-1.38h.7v.08zm-1.8-.26h1.4l-3.32-7.6h-.36l-.5 1.13zm-4 .26h-2l2.8-6.42 1 2.23-.69 1.62h1.4l.68 1.56H86.6zm-1.58-.26H86l.42-1H89l-.45-1h-1.66l.8-1.89-.69-1.61zm13.57.26H93v-1.69h5.22zm-5-.26h4.7v-1.16h-4.7zm1.58-1.66H93v-6.06h1.84zm-1.58-.26h1.32v-5.54h-1.28z"/></g></g></svg>